<mxfile host="app.diagrams.net" modified="2023-10-19T16:53:17.705Z" agent="Mozilla/5.0 (Windows NT 10.0; Win64; x64; rv:109.0) Gecko/20100101 Firefox/118.0" version="22.0.5" etag="TrUxVoVIaIUr9pPm6AcY" type="github">
  <diagram name="Page-1" id="GzHDt_7s23U8W25jS8KN">
    <mxGraphModel>
      <root>
        <mxCell id="0" />
        <mxCell id="1" parent="0" />
      </root>
    </mxGraphModel>
  </diagram>
</mxfile>
